<?xml version="1.0" encoding="UTF-8"?>
<svg width="1080" height="1920" viewBox="0 0 1080 1920" xmlns="http://www.w3.org/2000/svg" role="img" aria-labelledby="title desc">
  <title id="title">Fish Tracker — Animated Splash</title>
  <desc id="desc">Animated underwater splash scene for a fish tracking app. Diver with phone, colorful fish, bubbles, plants, and waves. Text: Fish Tracker, Ready to dive?, Loading..., RMDY.</desc>

  <!-- ============== DEFS ============== -->
  <defs>
    <!-- Background gradient -->
    <radialGradient id="bg" cx="50%" cy="85%" r="120%">
      <stop offset="0%" stop-color="#013A5A"/>
      <stop offset="60%" stop-color="#045C7A"/>
      <stop offset="100%" stop-color="#0AB3B9"/>
    </radialGradient>

    <!-- Soft glow -->
    <filter id="soft">
      <feGaussianBlur stdDeviation="6" result="b"/>
      <feColorMatrix in="b" type="matrix" values="1 0 0 0 0  0 1 0 0 0  0 0 1 0 0  0 0 0 .35 0" result="c"/>
      <feBlend in="SourceGraphic" in2="c" mode="screen"/>
    </filter>

    <!-- Light beams -->
    <linearGradient id="beam" x1="0" y1="0" x2="0" y2="1">
      <stop offset="0" stop-color="#CFF7FF" stop-opacity=".25"/>
      <stop offset="1" stop-color="#CFF7FF" stop-opacity="0"/>
    </linearGradient>

    <!-- Bubble styling -->
    <radialGradient id="bubbleFill" cx="35%" cy="35%">
      <stop offset="0" stop-color="#FFFFFF" stop-opacity="0.9"/>
      <stop offset="60%" stop-color="#E6FBFF" stop-opacity="0.45"/>
      <stop offset="100%" stop-color="#D4F6FF" stop-opacity="0.1"/>
    </radialGradient>
    <g id="bubble">
      <circle r="10" fill="url(#bubbleFill)" stroke="#FFFFFF" stroke-opacity=".45" stroke-width="1.5"/>
      <circle r="4" cx="-3" cy="-3" fill="#FFFFFF" fill-opacity=".65"/>
    </g>

    <!-- WAVE SHAPES -->
    <linearGradient id="waveGrad" x1="0" y1="0" x2="0" y2="1">
      <stop offset="0" stop-color="#FFFFFF" stop-opacity=".18"/>
      <stop offset="1" stop-color="#FFFFFF" stop-opacity="0"/>
    </linearGradient>
    <path id="wave" d="M0,0 C150,35 300,-35 450,0 C600,35 750,-35 900,0 C1050,35 1200,-35 1350,0 L1350,160 L0,160 Z" fill="url(#waveGrad)"/>

    <!-- PLANTS -->
    <g id="plant">
      <path d="M0,0 C-12,-50 12,-80 0,-140 C-18,-220 30,-260 0,-340"
            stroke="#58E1A7" stroke-width="10" fill="none" stroke-linecap="round"/>
      <path d="M0,-90 q-22,-18 -40,0 q20,10 40,0 z" fill="#58E1A7" opacity=".85"/>
      <path d="M0,-170 q18,-16 36,0 q-16,10 -36,0 z" fill="#58E1A7" opacity=".75"/>
      <animateTransform attributeName="transform" type="rotate" values="-3 0 0;3 0 0;-3 0 0" dur="6s" repeatCount="indefinite"/>
    </g>

    <!-- FISH: Clownfish -->
    <g id="fish-clown">
      <ellipse rx="42" ry="20" fill="#FB8500"/>
      <g fill="#FFFFFF">
        <rect x="-30" y="-20" width="8" height="40" rx="4"/>
        <rect x="-2" y="-20" width="8" height="40" rx="4"/>
        <rect x="20" y="-20" width="8" height="40" rx="4"/>
      </g>
      <polygon points="-52,0 -78,-16 -78,16" fill="#F97316"/>
      <circle cx="20" cy="-4" r="3.2" fill="#001219"/>
    </g>

    <!-- FISH: Blue Tang -->
    <g id="fish-blue">
      <ellipse rx="46" ry="22" fill="#00B4D8"/>
      <polygon points="-56,0 -86,-18 -86,18" fill="#0077B6"/>
      <path d="M-20,-12 q10,12 0,24" stroke="#023E8A" stroke-width="4"/>
      <circle cx="22" cy="-3" r="3.4" fill="#03045E"/>
    </g>

    <!-- FISH: Yellow Angel -->
    <g id="fish-angel">
      <ellipse rx="34" ry="28" fill="#FFD166"/>
      <polygon points="-38,0 -60,-20 -60,20" fill="#F4A261"/>
      <path d="M-6,-18 q-8,18 8,36" stroke="#E76F51" stroke-width="4"/>
      <circle cx="10" cy="-5" r="3" fill="#2A2A2A"/>
    </g>

    <!-- FISH: Slim Silhouette (school) -->
    <g id="fish-slim">
      <rect x="-26" y="-6" width="52" height="12" rx="6" fill="#CFF7FF" opacity=".7"/>
      <polygon points="-36,0 -56,-10 -56,10" fill="#CFF7FF" opacity=".7"/>
    </g>

    <!-- DIVER -->
    <g id="diver">
      <!-- Tank -->
      <rect x="-220" y="-60" width="84" height="146" rx="22" fill="#0A6D90" opacity=".9"/>
      <!-- Hose -->
      <path d="M-140,-10 C-60,14 20,6 92,-18" stroke="#0A6D90" stroke-width="12" fill="none" stroke-linecap="round"/>
      <!-- Body -->
      <rect x="-140" y="-82" width="170" height="180" rx="44" fill="#0F2F4A" filter="url(#soft)"/>
      <!-- Head + mask -->
      <circle cx="48" cy="-84" r="44" fill="#0F2F4A"/>
      <rect x="16" y="-104" width="66" height="44" rx="12" fill="#CFF7FF" opacity=".95" stroke="#0A6D90" stroke-width="6"/>
      <!-- Fins -->
      <path d="M-42,104 l-42,76 l36,10 l54,-66 z" fill="#0A6D90"/>
      <path d="M-96,92 l-50,72 l30,12 l60,-64 z" fill="#0A6D90" opacity=".9"/>
      <!-- Arm to phone -->
      <path d="M22,14 C72,24 118,-10 160,-26" stroke="#0F2F4A" stroke-width="26" fill="none" stroke-linecap="round"/>
      <!-- Phone (pulsing dot) -->
      <g transform="translate(174,-34) rotate(12)">
        <rect x="-30" y="-54" width="60" height="108" rx="14" fill="#111820"/>
        <rect x="-24" y="-48" width="48" height="96" rx="10" fill="#0F1722"/>
        <circle cx="-10" cy="-36" r="6" fill="#FF3B30">
          <animate attributeName="opacity" values="1;0.3;1" dur="1.4s" repeatCount="indefinite"/>
        </circle>
        <path d="M-16,2 l6,-12 l8,26 l6,-18 l8,20 l6,-10 l6,14" stroke="#66E3FF" stroke-width="2" fill="none" stroke-linecap="round"/>
      </g>
      <!-- Bubbles from regulator -->
      <g>
        <use href="#bubble" x="96" y="-18">
          <animateTransform attributeName="transform" attributeType="XML" type="translate" from="0,0" to="0,-140" dur="3s" repeatCount="indefinite"/>
          <animate attributeName="opacity" values="1;0.6;0" dur="3s" repeatCount="indefinite"/>
        </use>
        <use href="#bubble" x="118" y="-38" transform="scale(1.3)">
          <animateTransform attributeName="transform" type="translate" from="0,0" to="0,-180" dur="3.6s" repeatCount="indefinite"/>
          <animate attributeName="opacity" values="1;0.6;0" dur="3.6s" repeatCount="indefinite"/>
        </use>
      </g>
    </g>
  </defs>

  <!-- ============== BACKGROUND ============== -->
  <rect width="1080" height="1920" fill="url(#bg)"/>
  <!-- Light shafts -->
  <g opacity=".4">
    <polygon points="240,0 430,0 360,520 260,520" fill="url(#beam)"/>
    <polygon points="640,0 880,0 700,520 580,520" fill="url(#beam)"/>
  </g>

  <!-- ============== TOP WAVES (animated) ============== -->
  <g transform="translate(-200,380)">
    <use href="#wave" opacity=".65">
      <animateTransform attributeName="transform" type="translate" values="0,0; -200,0; 0,0" dur="12s" repeatCount="indefinite"/>
    </use>
    <use href="#wave" y="90" opacity=".55">
      <animateTransform attributeName="transform" type="translate" values="-150,0; 0,0; -150,0" dur="16s" repeatCount="indefinite"/>
    </use>
    <use href="#wave" y="180" opacity=".45">
      <animateTransform attributeName="transform" type="translate" values="0,0; -220,0; 0,0" dur="20s" repeatCount="indefinite"/>
    </use>
  </g>

  <!-- ============== TITLE & SUBTITLE ============== -->
  <text x="540" y="240" text-anchor="middle"
        font-family="Inter, system-ui, -apple-system, Segoe UI, Roboto, Helvetica, Arial, sans-serif"
        font-size="100" font-weight="800" fill="#FFFFFF">Fish Tracker</text>

  <text x="540" y="320" text-anchor="middle"
        font-family="Inter, system-ui, -apple-system, Segoe UI, Roboto, Helvetica, Arial, sans-serif"
        font-size="42" fill="#E6FBFF" opacity=".95">Ready to dive?</text>

  <!-- ============== MIDGROUND SCENE ============== -->
  <g transform="translate(660,1040) rotate(-14)">
    <use href="#diver"/>
  </g>

  <!-- Tracking dashed path -->
  <path d="M120,1200 C260,1040 460,1020 560,1140 C690,1290 860,1300 980,1200"
        stroke="#66E3FF" stroke-width="4" stroke-dasharray="7 12" fill="none" opacity=".8"/>

  <!-- Colorful fishes following the path -->
  <g filter="url(#soft)">
    <use href="#fish-clown" transform="translate(210,1130) rotate(8) scale(1.05)">
      <animateTransform attributeName="transform" additive="sum" type="translate" values="0,0; 10,-8; 0,0" dur="4s" repeatCount="indefinite"/>
    </use>
    <use href="#fish-blue" transform="translate(360,1050) rotate(16) scale(1)">
      <animateTransform attributeName="transform" additive="sum" type="translate" values="0,0; -8,10; 0,0" dur="5s" repeatCount="indefinite"/>
    </use>
    <use href="#fish-angel" transform="translate(520,1160) rotate(-6) scale(1.1)">
      <animateTransform attributeName="transform" additive="sum" type="translate" values="0,0; 12,-6; 0,0" dur="4.8s" repeatCount="indefinite"/>
    </use>
    <use href="#fish-blue" transform="translate(700,1240) rotate(-14) scale(.95)">
      <animateTransform attributeName="transform" additive="sum" type="translate" values="0,0; -10,6; 0,0" dur="4.6s" repeatCount="indefinite"/>
    </use>
    <use href="#fish-clown" transform="translate(880,1180) rotate(-20) scale(1)">
      <animateTransform attributeName="transform" additive="sum" type="translate" values="0,0; 8,-8; 0,0" dur="5.2s" repeatCount="indefinite"/>
    </use>
  </g>

  <!-- Small schooling silhouettes -->
  <g opacity=".5">
    <use href="#fish-slim" transform="translate(160,780) scale(.8)">
      <animateTransform attributeName="transform" additive="sum" type="translate" values="0,0; 50,0; 0,0" dur="10s" repeatCount="indefinite"/>
    </use>
    <use href="#fish-slim" transform="translate(200,820) scale(.7)"/>
    <use href="#fish-slim" transform="translate(240,790) scale(.65)"/>
    <use href="#fish-slim" transform="translate(880,660) scale(.75)"/>
    <use href="#fish-slim" transform="translate(920,680) scale(.65)"/>
  </g>

  <!-- Free-floating bubbles (rising at different speeds) -->
  <g opacity=".9">
    <use href="#bubble" x="160" y="1500">
      <animateTransform attributeName="transform" type="translate" values="0,0; 0,-420" dur="9s" repeatCount="indefinite"/>
      <animate attributeName="opacity" values="1;0.7;0" dur="9s" repeatCount="indefinite"/>
    </use>
    <use href="#bubble" x="300" y="1580" transform="scale(1.4)">
      <animateTransform attributeName="transform" type="translate" values="0,0; 0,-520" dur="11s" repeatCount="indefinite"/>
      <animate attributeName="opacity" values="1;0.8;0" dur="11s" repeatCount="indefinite"/>
    </use>
    <use href="#bubble" x="520" y="1520" transform="scale(1.1)">
      <animateTransform attributeName="transform" type="translate" values="0,0; 0,-460" dur="10s" repeatCount="indefinite"/>
      <animate attributeName="opacity" values="1;0.6;0" dur="10s" repeatCount="indefinite"/>
    </use>
    <use href="#bubble" x="760" y="1560" transform="scale(.9)">
      <animateTransform attributeName="transform" type="translate" values="0,0; 0,-480" dur="12s" repeatCount="indefinite"/>
      <animate attributeName="opacity" values="1;0.6;0" dur="12s" repeatCount="indefinite"/>
    </use>
    <use href="#bubble" x="940" y="1500" transform="scale(1.25)">
      <animateTransform attributeName="transform" type="translate" values="0,0; 0,-520" dur="13s" repeatCount="indefinite"/>
      <animate attributeName="opacity" values="1;0.5;0" dur="13s" repeatCount="indefinite"/>
    </use>
  </g>

  <!-- ============== FOREGROUND PLANTS ============== -->
  <g transform="translate(80,1780)">
    <use href="#plant" transform="scale(1.1)"/>
  </g>
  <g transform="translate(200,1800)">
    <use href="#plant" transform="scale(.9)"/>
  </g>
  <g transform="translate(880,1780)">
    <use href="#plant" transform="scale(1.2)"/>
  </g>
  <g transform="translate(980,1820)">
    <use href="#plant" transform="scale(.8)"/>
  </g>

  <!-- Seafloor -->
  <rect x="0" y="1820" width="1080" height="100" fill="#0A4E58" opacity=".5"/>

  <!-- ============== LOADING (animated dots) & COMPANY NAME ============== -->
  <g text-anchor="middle" font-family="Inter, system-ui, -apple-system, Segoe UI, Roboto, Helvetica, Arial, sans-serif" fill="#CFF7FF" opacity=".9">
    <!-- Loading line above RMDY -->
    <text x="540" y="1848" font-size="22">
      <tspan>Loading</tspan>
      <tspan>.</tspan>
      <tspan>
        .
        <animate attributeName="opacity" values="0;1;0" dur="1.2s" begin="0.2s" repeatCount="indefinite"/>
      </tspan>
      <tspan>
        .
        <animate attributeName="opacity" values="0;1;0" dur="1.2s" begin="0.4s" repeatCount="indefinite"/>
      </tspan>
    </text>

    <!-- Company name -->
    <text x="540" y="1886" font-size="28">RMDY</text>
  </g>
</svg>
