<svg width="58" height="41" viewBox="0 0 58 41" fill="none" xmlns="http://www.w3.org/2000/svg">
<path d="M55.7093 15.1399C55.6815 15.1126 55.6531 15.0852 55.6246 15.0586L54.5033 13.9828C51.3429 11.0015 47.4705 8.80601 43.2243 7.58762L32.1878 0.511899C30.7219 -0.423221 28.7433 -0.0413081 27.7692 1.36504C27.4233 1.86426 27.2378 2.45012 27.2364 3.04932L27.226 7.62761C22.6386 8.99929 18.5126 11.5147 15.2696 14.9159L11.9474 18.4285L5.13346 13.3123C3.73913 12.2819 1.7376 12.5312 0.663547 13.8688C0.245318 14.3881 0.0132771 15.0219 0.000771953 15.6771V25.3209C-0.0179858 26.1407 0.30576 26.9339 0.900451 27.5237C1.14986 27.7617 1.44026 27.957 1.75775 28.1023C2.8728 28.5962 4.18445 28.4342 5.13276 27.6864L11.9259 22.5502L13.6189 24.3365L13.6717 24.3871C14.2942 24.9843 15.303 24.9843 15.9254 24.3871C16.5479 23.7899 16.5479 22.8221 15.9254 22.2249L14.2115 20.418L17.5553 16.8855C26.475 7.52097 41.6187 6.86645 51.3797 15.4238C51.6618 15.6711 51.9383 15.925 52.2079 16.185L53.3292 17.2607C55.1931 19.049 55.1931 21.949 53.3292 23.7373L52.1968 24.8237C50.4217 26.506 48.3743 27.9016 46.1338 28.9554C41.9418 25.8841 40.576 20.41 42.8644 15.8504C43.2687 15.1052 42.9672 14.1861 42.1898 13.7982C41.4131 13.4103 40.4551 13.6996 40.0507 14.4454C40.0355 14.4734 40.0209 14.502 40.0077 14.5314C37.367 19.7768 38.4605 26.0494 42.7373 30.1845L42.9068 30.3471C40.2717 31.2056 37.499 31.6115 34.7173 31.5448C29.4658 31.4222 24.4019 29.6459 20.3064 26.4893C19.6548 25.9261 18.6509 25.9761 18.0631 26.6013C17.4761 27.2265 17.5282 28.1896 18.1798 28.7535L18.307 28.8754C20.9636 30.9003 23.9927 32.4293 27.2371 33.3824V37.9507C27.2419 39.6396 28.6731 41.0047 30.4335 41C31.0581 40.998 31.6688 40.8207 32.1891 40.4888L43.2146 33.4031C47.4594 32.1907 51.3311 30.0025 54.4935 27.0285L55.626 25.9421C58.7578 22.9821 58.796 18.1465 55.7107 15.1419L55.7093 15.1399ZM3.28061 25.4022L3.18543 15.6878L9.55474 20.4993L3.28061 25.4022ZM34.6638 6.41988C33.2847 6.46187 31.9119 6.60717 30.5565 6.85312L30.4106 3.04999L35.7219 6.46054C35.3724 6.45054 35.0237 6.41988 34.6638 6.41988ZM30.4099 37.9487V34.1522C31.814 34.4028 33.2361 34.5455 34.6631 34.5788C35.0125 34.5888 35.3717 34.5481 35.7212 34.5381L30.4099 37.9487Z" fill="white"/>
</svg>
